Patient4_TMGait_0pt5_02_left_12_EMG.mot
version=1
nRows=36
nColumns=33
inDegrees=no
endheader
time	1LAddLong	2LGlutMax	3LGlutMed	4LIliopsoas	5LSemiMemb	6LBicFemLong	7LRecFem	8LVastMed	9LVastLat	10LGasMed	11LTibAnt	12lTibPost	13LPeroneusLong	14LSol	15LExtDigLong	16LFlexDigLong	17RAddLong	18RGlutMax	19RGlutMed	20RIliopsoas	21RSemiMemb	22RBicFemLong	23RRecFem	24RVastMed	25RVastLat	26RGasMed	27RTibAnt	28RTibPost	29RPeroneusLong	30RSol	31RExtDigLong	32RFlexDigLong
15.05	0.013885	0.11932	-0.065155	-0.006409	0.001373	0.039978	0.11185	0.008698	0.22736	-0.010681	0.040131	0.005341	0.12665	-0.019836	-0.001831	-0.006561	-0.005341	-0.011597	1.1624	-0.032196	-0.065002	-0.080414	0.10727	-0.066681	-0.090027	-0.010834	0.004578	-0.002899	0.053558	0.092163	-0.002441	-0.000153
15.051	0	0.1207	-0.06546	-0.009003	-0.003052	0.053864	0.095978	0.007019	0.22461	0.049896	0.078583	-0.00412	0.10773	-0.019684	0.085297	0.002594	-0.013733	-0.008698	0.71091	-0.038147	-0.013885	-0.076141	0.20355	-0.029144	-0.11673	-0.005951	0.006256	-0.005188	-0.0177	0.12192	-0.002899	-0.010986
15.052	0.019226	0.12878	-0.068207	0.006409	-0.008545	0.045166	0.11215	-0.002289	0.2153	0.043182	0.02182	0.015106	0.093994	0.006866	-0.002441	-0.000916	-0.019836	-0.019836	0.41336	-0.035706	-0.028229	-0.01358	0.21744	-0.010986	-0.1445	-0.006866	0.016479	-0.007477	0.070648	0.10544	-0.003662	-0.011902
15.053	0.028687	0.14282	-0.08194	0.024872	-0.005188	0.029602	0.092926	-0.00351	0.21698	0.034027	-0.015564	0.006561	0.049896	0.003052	-0.049591	-0.00351	-0.014954	-0.013885	0.1619	0.027313	-0.028381	0.031891	0.13168	-0.014496	-0.1152	-0.036163	0.050659	-0.007629	0.066833	0.067291	-0.000305	-0.007782
15.054	0.00885	0.10391	-0.074921	0.020294	0.001984	0.039825	0.081177	0.039368	0.20584	0.015259	0.001068	0.010986	0.018616	-0.019531	-0.036774	-0.001221	-0.000916	-0.029449	-0.41611	0.028381	0.027771	0.031586	0.21576	0.015411	-0.12528	-0.040741	0.053253	-0.009918	-0.001678	0.053558	-0.002136	-0.00885
15.055	0.009918	0.11444	-0.055847	0.00061	0.004883	0.035095	0.076141	0.006409	0.20767	0.004578	0.035858	0.009766	0.022736	-0.014496	0.061493	0.002594	0.030975	-0.01358	-1.0263	0.00824	0.071106	0.008698	0.14267	-0.042419	-0.063782	-0.048828	0.052795	-0.010071	-0.011597	0.001221	-0.002594	-0.003052
15.056	0.00885	0.12009	-0.055847	-0.002289	0.007324	0.017395	0.07782	-0.002747	0.20996	-0.015411	0.020752	0.006561	0.028687	-0.0177	0.084839	-0.001678	0.009766	-0.049744	-0.60516	-0.10971	-0.011139	-0.027771	-0.065613	0.079346	0.12848	-0.031738	0.065308	-0.011444	-0.079803	-0.065002	-0.003052	-0.00412
15.057	0.012665	0.081024	-0.051117	0.002289	0.009308	0.014954	0.072784	0.007019	0.19348	-0.0383	-0.010681	0.01236	0.056915	-0.024719	0.033569	0.002594	0.009918	-0.079193	0.23514	-0.15961	-0.14038	-0.050201	-0.25559	-0.026703	0.16449	0.005951	0.050812	-0.019379	-0.22186	-0.059814	0.000153	-0.001831
15.058	0.006104	0.11368	-0.041351	-0.004272	0.01236	0.018005	0.075684	0.006714	0.1947	-0.018463	-0.006714	0.006104	0.065765	-0.01709	-0.003357	0.002594	-0.029144	-0.036011	0.024719	-0.034027	-0.13489	-0.038757	-0.19562	-0.073242	0.17075	-0.001831	0.029755	-0.028534	-0.32577	-0.1622	-0.000305	-0.00824
15.059	0.004883	0.0914	-0.041351	0.002289	0.007782	0.019989	0.065765	-0.000916	0.19119	-0.024567	0.005188	0.00885	0.038605	-0.033569	0.00824	0.015106	-0.022888	0.001221	0.66574	-0.018158	-0.037842	-0.092926	-0.025787	-0.061493	0.11383	-0.034943	-0.007324	-0.056	-0.1828	-0.22568	-0.00061	-0.002441
15.06	0.005798	0.097961	-0.045776	0.009918	-0.007324	0.027771	0.059357	-0.000458	0.18539	-0.006256	0.011597	0.008392	0.050507	-0.035706	-0.022278	0.00061	0.007172	-0.023499	-0.046082	0.011139	-0.009003	-0.090942	0.013275	-0.085297	0.091705	-0.005188	-0.010071	-0.097809	0.027771	-0.12085	-0.006866	0.004272
15.061	0.003357	0.080414	-0.041351	0.018005	-0.002594	0.038757	0.056763	0.00351	0.17746	-0.016785	0.010376	0.001678	0.066071	-0.04364	-0.06897	0.007477	0.020142	-0.043182	0.23972	-0.041046	0.027771	-0.085144	0.022583	-0.082092	0.043793	0.024872	0.016937	-0.08255	0.20187	-0.092926	-0.005035	-0.004883
15.062	0.00351	0.057831	-0.028992	0.018311	-0.013123	0.04776	0.054169	0.002136	0.17777	-0.024109	0.012054	0.008392	0.068512	-0.055237	-0.068207	0.006409	0.02655	-0.08255	0.38696	-0.031281	0.069733	-0.16998	0.024109	-0.10223	0.024872	0.006714	0.040741	0.06134	0.077667	-0.31616	-0.003204	-0.014648
15.063	0.008698	0.059204	-0.028687	0.006409	-0.003967	0.027618	0.076141	-0.00061	0.16419	-0.026245	0.003052	0.010223	0.085144	-0.04303	-0.058899	0.005798	0.033112	-0.093689	0.008392	0.016327	0.027924	-0.28046	0.03952	-0.074921	0.021515	-0.027771	0.054779	0.13153	-0.12573	-0.87906	-0.004578	-0.0177
15.064	0.007019	0.088501	-0.029144	0.002441	0.00473	0.028076	0.058289	-0.008087	0.15533	-0.01297	0.006561	0.006409	0.069885	-0.019531	-0.04425	0.009613	0.048981	-0.13733	-0.23834	0.00351	-0.14084	-0.26627	0.029755	-0.062561	0.01236	-0.016785	0.049133	0.081329	-0.27023	-0.7283	-0.003662	-0.012512
15.065	0.010986	0.057068	-0.011597	0.00946	0.00412	-0.001373	0.041656	-0.028839	0.15671	-0.001678	0.007935	0.01358	0.031281	-0.002747	-0.026703	0.008698	0.045319	-0.10895	-0.0177	0.025635	-0.3447	-0.080719	0.052185	-0.072327	0.021667	-0.00412	0.052643	0.067291	-0.09491	-0.31128	-0.003662	-0.013733
15.066	0.016174	0.018463	0.011597	0.013733	0.036163	-0.017395	0.047913	-0.024567	0.14801	0.006561	0.013733	0.005341	0.014191	-0.013733	-0.012665	0.010071	-0.00351	-0.097351	0.090179	0.059967	-0.16464	0.061188	0.027008	-0.096893	0.008392	-0.011444	0.044098	-0.027008	-0.056915	0.41092	0	-0.011597
15.067	0.011139	0.051575	0.027008	0.005188	0.039825	0.014648	0.06012	0.000916	0.14725	-0.009766	0.012817	0.006714	0.018616	-0.014496	-0.01297	0.010681	-0.026398	-0.13275	0.1831	0.067749	-0.43549	0.15533	0.010681	0.006561	0.023956	-0.020599	0.10635	-0.17471	-0.69946	0.93445	-0.002747	-0.001831
15.068	0.005798	0.026245	0.04364	-0.003204	0.00946	-0.000916	0.049744	0.010834	0.14084	-0.022278	0.006409	0.005493	0.016632	-0.005493	-0.011444	0.011139	-0.041809	-0.092163	0.18417	0.06546	-0.33005	0.049133	0.023956	0.04837	-0.014496	-0.036621	0.09079	-0.19867	-0.76248	1.069	-0.000916	0.003662
15.069	-0.002899	0.057068	0.051575	-0.003967	-0.028229	-0.008545	0.048523	-0.014648	0.13916	-0.050201	0.007782	0.000763	0.054016	0.004883	-0.010986	0.003662	-0.035095	-0.034027	0.17563	0.060425	0.12161	0.082855	0.070953	0.013428	-0.01236	-0.006104	0.013275	-0.060577	-0.59494	0.73318	-0.010376	0.003662
15.07	0.011597	0.049133	-0.008392	0.006104	-0.017395	-0.013428	0.029755	-0.006866	0.14404	-0.093689	0.024109	0.005493	0.056458	0.013123	0.002899	0.003204	-0.065613	0.003815	0.10864	0.049286	0.48599	0.1535	0.049744	0.11826	-0.004425	-0.019836	-0.076141	0.2536	-0.094452	-0.45792	-0.00351	-0.005951
15.071	0.00473	0.036926	-0.041046	-0.007019	-0.014038	-0.004578	0.029297	-0.00473	0.13367	-0.079956	0.050049	0.002289	0.082092	0.037079	0.009155	0.001526	-0.037231	-0.015564	-0.10437	-0.016937	0.17822	0.12604	0.041504	0.05722	0.021057	0.00946	-0.10162	0.11612	0.23529	-0.73914	-0.001831	-0.025635
15.072	0.013428	0.021362	-0.024872	-0.009308	0.000153	-0.013123	0.028229	0.00061	0.13046	-0.049744	0.071716	0.003204	0.081329	0.066681	0.012512	0.021057	-0.00824	-0.028534	-0.19318	-0.028992	-0.010071	0.12619	0.068817	-0.002594	0.040283	0.010834	-0.050354	0.005493	0.46295	-0.88043	-0.001678	-0.021057
15.073	0.017242	0.014038	-0.027313	0.002441	0.027161	-0.01297	0.031891	-0.011749	0.13504	-0.032043	0.019836	0.00946	0.091858	0.019989	0.002289	0.007782	-0.001678	0.000916	-0.021362	-0.02121	0.033722	0.070801	0.045624	-0.094147	0.047302	0.008698	0.025787	0.034943	0.54459	-0.64026	0	-0.013428
15.074	0.019684	0.014801	-0.064392	0.015411	0.036163	-0.019989	0.04776	0.000153	0.12878	0.014191	-0.046234	0.010529	0.092926	0.000763	0.021515	0.002747	-0.020752	0.020905	0.11078	-0.00473	0.18112	-0.000305	0.018768	-0.13962	0.04776	0.001068	0.035248	0.023956	0.51193	0.4042	-0.001526	-0.008087
15.075	0.013275	0.020752	-0.10544	0.016327	0.018921	-0.007324	0.030823	-0.003357	0.13245	0.022278	-0.022125	-0.006561	0.11322	-0.040741	-0.005341	0.004578	-0.005493	0.032349	0.12985	-0.020905	0.18127	-0.00946	0.024872	-0.067291	0.032654	-0.021362	0.033722	0.009003	0.36652	0.61859	0	-0.002136
15.076	0.010529	0.035553	-0.094299	-0.000916	0.013123	0.001678	0.0383	-0.004883	0.12787	0.018311	-0.029755	0.006714	0.10178	-0.12512	-0.010986	-0.000916	-0.021667	0.014038	0.16327	-0.010834	0.12848	-0.006714	0.038757	0.058594	0.032349	-0.016785	0.032654	-0.032043	-0.084839	0.42602	-0.000305	-0.001831
15.077	0.011292	-0.027771	-0.055695	-0.009766	0.001831	-0.006409	0.036774	-0.00412	0.12848	0.018768	-0.016632	0.016174	0.065918	-0.20004	-0.005951	0.004425	-0.035553	-0.057678	-0.065918	-0.072327	0.009308	0.027924	0.050812	0.10605	0.029602	-0.011597	0.07782	-0.043335	-0.54001	0.2449	-0.000763	-0.007935
15.078	0.003052	-0.006866	-0.058136	0.005035	0.001984	-0.00061	0.038452	-0.005951	0.12421	0.010681	-0.013733	0.01358	0.066681	-0.24933	-0.014801	0.001068	-0.018311	-0.070953	0.057068	0.007172	-0.026093	0.03006	0.048676	0.12436	-0.025635	0.002136	0.094757	-0.17151	-0.21606	-0.046844	-0.002747	-0.005493
15.079	0.006714	0.00351	-0.065308	-0.005188	0.004425	0.01358	0.031281	-0.001984	0.13504	0.020142	-0.007019	0.005646	0.018921	-0.28503	-0.020752	0.003052	0.004272	-0.096893	0.16251	0.029144	0.08316	0.002747	0.084534	0.016174	-0.089722	0.036163	0.076447	-0.21057	-0.12741	-0.081024	-0.002136	-0.00824
15.08	0.000916	0.002289	-0.079803	0.016785	0.011902	0.028229	0.028229	-0.007782	0.12238	-0.003357	0.008087	0.005035	-0.012512	-0.23361	-0.009308	0.002441	0.011444	-0.039368	0.049744	0.022888	0.097351	-0.012665	0.043182	0.005798	-0.074005	0.050659	0.031738	0.1033	-0.18448	0.12451	0.000458	-0.00473
15.081	0.001068	0.050354	-0.073853	0.003052	0.012207	0.016022	0.032501	-0.006866	0.10696	-0.00412	0.000763	0.01297	0.000916	-0.20493	-0.001831	0.005951	0.032654	-0.027924	-0.03891	-0.011292	0.072937	0.067139	0.02594	0.04837	-0.006866	0.039063	0.016937	-0.015411	0.28305	-0.026245	-0.001678	-0.003662
15.082	-0.00946	0.043793	-0.059814	0.009918	0.010529	-0.010071	0.026093	0.005646	0.1088	0.001831	0.004883	0.005035	0.029907	-0.1268	0.013275	-0.011139	0.031281	-0.010223	0.013885	0.010376	-0.014343	0.13153	0.07843	0.011292	-0.009155	-0.041504	-0.002594	0.20172	0.37445	-0.34653	-0.001831	-0.011597
15.083	0.004425	0.044098	-0.059357	0.002441	-0.022125	-0.019989	0.029449	-0.006561	0.096283	0.004578	-0.000153	0.006256	0.08667	-0.023193	0.05722	-0.00824	0.012054	0.027008	-0.090027	0.08316	-0.16724	0.13855	0.089417	-0.011292	-0.00473	-0.2327	-0.005493	0.082092	0.46463	-0.020447	-0.003204	-0.006561
15.084	0.010529	0.018616	-0.059204	-0.001221	0.016632	-0.014038	0.011444	-0.000153	0.089111	0.007019	0.002289	0.006866	0.057068	0.027771	0.032806	-0.003204	0.001068	-0.040741	-0.068817	0.15518	-0.15564	0.080414	0.11734	-0.016327	-0.065765	-0.24841	-0.004883	-0.17685	0.10086	0.19547	-0.001831	0.003662
15.085	0.001984	0.020142	-0.06134	0.009766	0.018158	0.002136	0.02533	-0.002594	0.085907	0.036621	0.006866	0.004272	0.02182	0.046539	0.019073	-0.005493	0.005798	-0.053558	0.018158	0.15213	0.004578	0.059052	0.10513	-0.086212	-0.112	-0.10635	-0.021057	-0.46997	-0.17639	0.54459	-0.00061	0.008087
